<svg version="1.0" xmlns="http://www.w3.org/2000/svg" width="933.333" height="933.333" viewBox="0 0 700 700"><path d="M0 350v350h700V0H0v350zM190.9 97c9.7 4.5 17 12.2 19.9 21 6.5 19.5 8.3 59.3 10.2 219.5.5 47.8 1.2 106.5 1.6 130.2l.6 43.3h5.7c7.7 0 200.3 4.8 222.1 5.5 93.3 3.1 115.6 7 123.1 21.7 3.9 7.5 4.8 31.3 1.7 42.1-1.5 5.1-7.1 11.3-12.7 14.2-9.1 4.6-26 7.6-54.6 9.6-23 1.6-241 2.4-283.6 1-36.8-1.2-48.5-2.2-60.3-5.1-10-2.5-14.8-5.3-28.4-16.4l-11-8.9-.6-55.6C122.5 350.7 122 294.3 122 235c0-102.7 1.3-112.7 16.6-126.9 11.4-10.7 23.1-15.3 37.1-14.7 6.6.3 9.5 1 15.2 3.6z"/></svg>