<svg width="50" height="50" fill="none" xmlns="http://www.w3.org/2000/svg"><path d="M25 50c13.807 0 25-11.193 25-25S38.807 0 25 0 0 11.193 0 25s11.193 25 25 25z" fill="#343740"/><path d="M31.25 37.5a3.134 3.134 0 01-3.125 3.125h-6.25A3.134 3.134 0 0118.75 37.5V18.75a3.134 3.134 0 013.125-3.125h6.25a3.134 3.134 0 013.125 3.125V37.5z" fill="#fff"/><path d="M12.656 28.125c-2.109 0-2.734-1.484-1.328-3.203L22.5 10.782c1.407-1.798 3.672-1.798 5.078 0l11.172 14.14c1.407 1.797.782 3.203-1.328 3.203H12.657z" fill="#fff"/></svg>