<svg width="50" height="50" viewBox="0 0 50 50" fill="none" xmlns="http://www.w3.org/2000/svg">
<path d="M25 50C38.8071 50 50 38.8071 50 25C50 11.1929 38.8071 0 25 0C11.1929 0 0 11.1929 0 25C0 38.8071 11.1929 50 25 50Z" fill="#343740"/>
<path d="M31.25 37.5C31.25 39.2188 29.8438 40.625 28.125 40.625H21.875C20.1562 40.625 18.75 39.2188 18.75 37.5V18.75C18.75 17.0312 20.1562 15.625 21.875 15.625H28.125C29.8438 15.625 31.25 17.0312 31.25 18.75V37.5Z" fill="white"/>
<path d="M12.6565 28.125C10.5471 28.125 9.92208 26.6406 11.3283 24.9219L22.5002 10.7812C23.9065 8.98437 26.1721 8.98437 27.5783 10.7812L38.7502 24.9219C40.1565 26.7187 39.5315 28.125 37.4221 28.125H12.6565Z" fill="white"/>
</svg>
